<?xml version="1.0" encoding="UTF-8"?>
<svg width="80px" height="80px" viewBox="0 0 80 80" version="1.1" xmlns="http://www.w3.org/2000/svg" xmlns:xlink="http://www.w3.org/1999/xlink">
    <!-- Generator: Sketch 52.1 (67048) - http://www.bohemiancoding.com/sketch -->
    <title>Actor</title>
    <desc>Created with Sketch.</desc>
    <g id="Actor" stroke="none" stroke-width="1" fill="none" fill-rule="evenodd" fill-opacity="0.1">
        <path d="M39.9472759,10 L47.0123023,31.827768 L70,31.827768 L51.3356766,45.2196837 L58.5061511,67.0474517 L39.9472759,53.5500879 L21.4938489,67.0474517 L28.5588752,45.2196837 L10,31.827768 L32.9876977,31.827768 L39.9472759,10 Z M40,34 C35.5816976,34 32,37.5817137 32,42.0000161 C32,46.4183185 35.5816976,50 39.9999839,50 C44.4182702,50 47.9999678,46.4183185 47.9999678,42.0000161 C47.9999678,37.5817137 44.4183185,34 40.0000161,34 L40,34 Z M43.6,41.2 L43.9428571,41.2 L43.9428571,43.2571429 L43.6,43.2571429 L42.2285714,42.9142857 L42.2285714,43.4285714 C42.2285714,43.7126095 41.9983238,43.9428571 41.7142857,43.9428571 L40.5092,43.9428571 L41.8307238,45.9851619 C41.933581,46.1441333 41.8881143,46.356419 41.7291238,46.4592762 C41.6715619,46.4965143 41.6070095,46.5143238 41.543181,46.5143238 C41.4307619,46.5143238 41.3206286,46.4590857 41.2550095,46.3576762 L40,44.4181333 L40,46.8571429 C40,47.0464952 39.8464952,47.2 39.6571429,47.2 C39.4677905,47.2 39.3142857,47.0464952 39.3142857,46.8571429 L39.3142857,44.4181333 L38.0592762,46.3576952 C37.9936762,46.4591238 37.8835238,46.5143429 37.7711048,46.5143429 C37.7072952,46.5143429 37.6427429,46.4965524 37.585181,46.4592952 C37.4261905,46.356419 37.3807238,46.1441524 37.483581,45.985181 L38.8050857,43.9428571 L37.6,43.9428571 C37.3159619,43.9428571 37.0857143,43.7126095 37.0857143,43.4285714 L37.0857143,40.8136762 C36.6680952,40.4840381 36.4,39.9733524 36.4,39.4 C36.4,38.4058857 37.2058857,37.6 38.2,37.6 C38.799219,37.6 39.3299619,37.8928952 39.6571429,38.3432571 C39.9843238,37.8929143 40.5150476,37.600019 41.1142857,37.600019 C42.1084,37.600019 42.9142857,38.4059048 42.9142857,39.400019 C42.9142857,39.9733524 42.6462095,40.4840571 42.2285714,40.8136952 L42.2285714,41.5428571 L43.6,41.2 Z" id="Shape" fill="#FFFFFF" fill-rule="nonzero"></path>
    </g>
</svg>