<svg width="154" height="231" viewBox="0 0 154 231" fill="none" xmlns="http://www.w3.org/2000/svg">
<path fill-rule="evenodd" clip-rule="evenodd" d="M0 0H29.6154H41.4615H112.538H124.385H154V231H124.385H112.538H41.4615H29.6154H0V0ZM29.6154 218.514V199.784H11.8462V218.514H29.6154ZM29.6154 181.054V162.324H11.8462V181.054H29.6154ZM29.6154 143.595V124.865H11.8462V143.595H29.6154ZM29.6154 106.135V87.4054H11.8462V106.135H29.6154ZM29.6154 68.6757V49.9459H11.8462V68.6757H29.6154ZM29.6154 31.2162V12.4865H11.8462V31.2162H29.6154ZM124.385 218.514H142.154V199.784H124.385V218.514ZM124.385 181.054H142.154V162.324H124.385V181.054ZM124.385 143.595H142.154V124.865H124.385V143.595ZM124.385 106.135H142.154V87.4054H124.385V106.135ZM124.385 68.6757H142.154V49.9459H124.385V68.6757ZM124.385 31.2162H142.154V12.4865H124.385V31.2162Z" fill="#1B1B1D"/>
</svg>
